<svg width="32" height="25" viewBox="0 0 32 25" fill="none" xmlns="http://www.w3.org/2000/svg">
<path d="M22.7 12.8961C22.7 11.4981 21.86 10.6201 20.698 10.6201C19.53 10.6201 18.79 11.5081 18.79 13.0981V14.0041C18.79 15.6041 19.538 16.5001 20.734 16.5001C21.91 16.5001 22.702 15.6201 22.702 14.1001V12.8961H22.7ZM11.874 13.3701L10.406 8.51807H10.3L8.832 13.3701H11.872H11.874Z" fill="url(#paint0_linear_25_289)"/>
<path d="M4 0.222168C2.93913 0.222168 1.92172 0.643595 1.17157 1.39374C0.421427 2.14389 0 3.1613 0 4.22217L0 20.2222C0 21.283 0.421427 22.3004 1.17157 23.0506C1.92172 23.8007 2.93913 24.2222 4 24.2222H28C29.0609 24.2222 30.0783 23.8007 30.8284 23.0506C31.5786 22.3004 32 21.283 32 20.2222V4.22217C32 3.1613 31.5786 2.14389 30.8284 1.39374C30.0783 0.643595 29.0609 0.222168 28 0.222168H4ZM16.418 12.8622C16.418 10.3022 17.806 8.77417 19.924 8.77417C21.234 8.77417 22.236 9.36217 22.596 10.3122H22.702V5.59217H25.022V18.2222H22.746V16.7282H22.632C22.342 17.6762 21.252 18.3362 19.898 18.3362C17.788 18.3362 16.418 16.8082 16.418 14.2502V12.8602V12.8622ZM8.338 15.1382L7.4 18.2222H5L9.026 6.22417H11.8L15.81 18.2222H13.288L12.348 15.1382H8.34H8.338Z" fill="url(#paint1_linear_25_289)"/>
<defs>
<linearGradient id="paint0_linear_25_289" x1="15.767" y1="8.51807" x2="15.767" y2="16.5001" gradientUnits="userSpaceOnUse">
<stop stop-color="#DA0000"/>
<stop offset="1" stop-color="#FFBE41"/>
</linearGradient>
<linearGradient id="paint1_linear_25_289" x1="16" y1="0.222168" x2="16" y2="24.2222" gradientUnits="userSpaceOnUse">
<stop stop-color="#DA0000"/>
<stop offset="1" stop-color="#FFBE41"/>
</linearGradient>
</defs>
</svg>
