<svg width="28" height="29" viewBox="0 0 28 29" fill="none" xmlns="http://www.w3.org/2000/svg">
<path d="M18.2 16.1779V6.37786C18.2 5.60786 17.57 4.97786 16.8 4.97786H14.462L12.6 2.17786H6.99999L5.13799 4.97786H2.79999C2.02999 4.97786 1.39999 5.60786 1.39999 6.37786V16.1779C1.39999 16.9479 2.02999 17.5779 2.79999 17.5779H16.8C17.57 17.5779 18.2 16.9479 18.2 16.1779ZM9.79999 7.07786C10.7283 7.07786 11.6185 7.44661 12.2749 8.10298C12.9312 8.75936 13.3 9.6496 13.3 10.5779C13.3 11.5061 12.9312 12.3964 12.2749 13.0527C11.6185 13.7091 10.7283 14.0779 9.79999 14.0779C8.87174 14.0779 7.9815 13.7091 7.32512 13.0527C6.66874 12.3964 6.29999 11.5061 6.29999 10.5779C6.29999 9.6496 6.66874 8.75936 7.32512 8.10298C7.9815 7.44661 8.87174 7.07786 9.79999 7.07786ZM19.6 9.17786H26.6V23.8779C26.6 24.8061 26.2312 25.6964 25.5749 26.3527C24.9185 27.0091 24.0283 27.3779 23.1 27.3779C22.1717 27.3779 21.2815 27.0091 20.6251 26.3527C19.9687 25.6964 19.6 24.8061 19.6 23.8779C19.5999 23.3588 19.7152 22.8462 19.9377 22.3772C20.1601 21.9082 20.4841 21.4946 20.8861 21.1663C21.2882 20.838 21.7582 20.6032 22.2621 20.4789C22.7661 20.3547 23.2914 20.344 23.8 20.4479V13.3779H19.6V9.17786ZM14 20.4479V18.9779H16.8V23.8779C16.8 24.8061 16.4312 25.6964 15.7749 26.3527C15.1185 27.0091 14.2283 27.3779 13.3 27.3779C12.3717 27.3779 11.4815 27.0091 10.8251 26.3527C10.1687 25.6964 9.79999 24.8061 9.79999 23.8779C9.79989 23.3588 9.91523 22.8462 10.1377 22.3772C10.3601 21.9082 10.6841 21.4946 11.0861 21.1663C11.4882 20.838 11.9582 20.6032 12.4621 20.4789C12.9661 20.3547 13.4914 20.344 14 20.4479Z" fill="url(#paint0_linear_11_1527)"/>
<defs>
<linearGradient id="paint0_linear_11_1527" x1="14" y1="2.17786" x2="14" y2="27.3779" gradientUnits="userSpaceOnUse">
<stop stop-color="#FF0F00"/>
<stop offset="1" stop-color="#DA0000"/>
</linearGradient>
</defs>
</svg>
