<svg width="17" height="18" viewBox="0 0 17 18" fill="none" xmlns="http://www.w3.org/2000/svg">
<path d="M16.3309 14.2367L12.7483 12.1446C12.3761 11.9587 11.9108 12.0052 11.6317 12.2841L9.86367 14.0507C9.72409 14.1902 9.49145 14.2367 9.30535 14.1437L8.7005 13.8183C6.56027 12.656 4.79225 10.8894 3.62908 8.75088L3.3034 8.1465C3.21034 7.96054 3.25687 7.7281 3.39645 7.58863L5.16447 5.822C5.44363 5.54306 5.53668 5.07816 5.30405 4.70624L3.21035 1.1265C3.16382 1.08001 3.16382 1.03353 3.11729 0.987037C2.83813 0.708097 2.41939 0.708097 2.14023 0.987037L0.558319 2.56769C0.186106 2.89312 0 3.40452 0 3.86942V4.47379C0 6.00796 0.418741 7.54213 1.11664 8.89034L1.34928 9.30875C2.88466 12.1911 5.25752 14.5156 8.14218 16.0963L8.56092 16.3287C9.9102 17.0261 11.399 17.4445 12.9344 17.4445H13.5393C14.0511 17.4445 14.5163 17.2585 14.842 16.8866L16.4239 15.306C16.4705 15.2595 16.517 15.213 16.517 15.1665C16.7962 14.8411 16.6566 14.4227 16.3309 14.2367Z" fill="white"/>
</svg>
