<svg width="12" height="19" viewBox="0 0 12 19" fill="none" xmlns="http://www.w3.org/2000/svg">
<path d="M11.8809 0.784966C11.8809 0.652357 11.8282 0.52518 11.7344 0.431412C11.6406 0.337644 11.5135 0.284966 11.3809 0.284966H8.88086C7.62198 0.222256 6.38946 0.660357 5.45258 1.50355C4.51571 2.34673 3.95064 3.52646 3.88086 4.78497V7.48497H1.38086C1.24825 7.48497 1.12107 7.53764 1.02731 7.63141C0.933538 7.72518 0.880859 7.85236 0.880859 7.98497V10.585C0.880859 10.7176 0.933538 10.8448 1.02731 10.9385C1.12107 11.0323 1.24825 11.085 1.38086 11.085H3.88086V17.785C3.88086 17.9176 3.93354 18.0448 4.02731 18.1385C4.12107 18.2323 4.24825 18.285 4.38086 18.285H7.38086C7.51347 18.285 7.64065 18.2323 7.73441 18.1385C7.82818 18.0448 7.88086 17.9176 7.88086 17.785V11.085H10.5009C10.612 11.0866 10.7206 11.051 10.8093 10.984C10.8981 10.917 10.962 10.8223 10.9909 10.715L11.7109 8.11497C11.7308 8.04109 11.7334 7.96363 11.7187 7.88856C11.7039 7.81348 11.6721 7.74279 11.6258 7.68194C11.5794 7.62108 11.5197 7.57167 11.4512 7.53752C11.3828 7.50338 11.3074 7.48539 11.2309 7.48497H7.88086V4.78497C7.90573 4.53744 8.02197 4.30808 8.20688 4.14166C8.39179 3.97524 8.63209 3.88372 8.88086 3.88497H11.3809C11.5135 3.88497 11.6406 3.83229 11.7344 3.73852C11.8282 3.64475 11.8809 3.51757 11.8809 3.38497V0.784966Z" fill="white"/>
</svg>
