<svg width="20" height="20" viewBox="0 0 20 20" fill="none" xmlns="http://www.w3.org/2000/svg">
<path d="M19.3351 9.84966L10.4856 1.0067C10.4219 0.942853 10.3462 0.892203 10.2629 0.857645C10.1796 0.823086 10.0903 0.805298 10.0001 0.805298C9.9099 0.805298 9.82058 0.823086 9.73727 0.857645C9.65395 0.892203 9.57827 0.942853 9.51455 1.0067L0.665137 9.84966C0.407324 10.1075 0.26123 10.4577 0.26123 10.8229C0.26123 11.5813 0.877832 12.1979 1.63623 12.1979H2.56865V18.5079C2.56865 18.8881 2.87588 19.1954 3.25615 19.1954H8.6251V14.3829H11.0313V19.1954H16.744C17.1243 19.1954 17.4315 18.8881 17.4315 18.5079V12.1979H18.364C18.7292 12.1979 19.0794 12.054 19.3372 11.794C19.8722 11.2569 19.8722 10.3868 19.3351 9.84966Z" fill="#DA0000"/>
</svg>
