<svg width="31" height="29" viewBox="0 0 31 29" fill="none" xmlns="http://www.w3.org/2000/svg">
<path d="M29.5024 14.2744L16.2283 1.00998C16.1327 0.914219 16.0192 0.838244 15.8942 0.786406C15.7693 0.734568 15.6353 0.707886 15.5 0.707886C15.3647 0.707886 15.2307 0.734568 15.1057 0.786406C14.9808 0.838244 14.8673 0.914219 14.7717 1.00998L1.49755 14.2744C1.11083 14.6612 0.891693 15.1864 0.891693 15.7343C0.891693 16.8719 1.8166 17.7968 2.95419 17.7968H4.35283V27.2617C4.35283 27.8322 4.81367 28.293 5.38408 28.293H13.4375V21.0742H17.0469V28.293H25.6159C26.1863 28.293 26.6472 27.8322 26.6472 27.2617V17.7968H28.0458C28.5936 17.7968 29.1189 17.5809 29.5057 17.1909C30.3081 16.3853 30.3081 15.0801 29.5024 14.2744Z" fill="white"/>
</svg>
