<svg width="29" height="26" viewBox="0 0 29 26" fill="none" xmlns="http://www.w3.org/2000/svg">
<path d="M0.00537109 4.25C0.00537109 3.32174 0.37412 2.4315 1.0305 1.77513C1.68687 1.11875 2.57711 0.75 3.50537 0.75H24.5054C25.4336 0.75 26.3239 1.11875 26.9802 1.77513C27.6366 2.4315 28.0054 3.32174 28.0054 4.25V21.75C28.0054 22.6783 27.6366 23.5685 26.9802 24.2249C26.3239 24.8813 25.4336 25.25 24.5054 25.25H3.50537C2.57711 25.25 1.68687 24.8813 1.0305 24.2249C0.37412 23.5685 0.00537109 22.6783 0.00537109 21.75V4.25ZM1.75537 20V21.75C1.75537 22.2141 1.93975 22.6592 2.26793 22.9874C2.59612 23.3156 3.04124 23.5 3.50537 23.5H24.5054C24.9695 23.5 25.4146 23.3156 25.7428 22.9874C26.071 22.6592 26.2554 22.2141 26.2554 21.75V15.625L19.6456 12.2177C19.4815 12.1355 19.2957 12.107 19.1145 12.1362C18.9333 12.1654 18.7658 12.2509 18.6359 12.3805L12.1434 18.873L7.48837 15.772C7.3203 15.6601 7.1187 15.6098 6.91776 15.6296C6.71682 15.6493 6.5289 15.738 6.38587 15.8805L1.75537 20ZM10.5054 8.625C10.5054 7.92881 10.2288 7.26113 9.73653 6.76884C9.24424 6.27656 8.57656 6 7.88037 6C7.18418 6 6.5165 6.27656 6.02422 6.76884C5.53193 7.26113 5.25537 7.92881 5.25537 8.625C5.25537 9.32119 5.53193 9.98887 6.02422 10.4812C6.5165 10.9734 7.18418 11.25 7.88037 11.25C8.57656 11.25 9.24424 10.9734 9.73653 10.4812C10.2288 9.98887 10.5054 9.32119 10.5054 8.625Z" fill="white"/>
</svg>
