<svg width="29" height="22" viewBox="0 0 29 22" fill="none" xmlns="http://www.w3.org/2000/svg">
<path d="M0.00189209 18V4C0.00189209 3.07174 0.370641 2.1815 1.02702 1.52513C1.6834 0.868749 2.57363 0.5 3.50189 0.5H24.5019C25.4301 0.5 26.3204 0.868749 26.9768 1.52513C27.6331 2.1815 28.0019 3.07174 28.0019 4V18C28.0019 18.9283 27.6331 19.8185 26.9768 20.4749C26.3204 21.1313 25.4301 21.5 24.5019 21.5H3.50189C2.57363 21.5 1.6834 21.1313 1.02702 20.4749C0.370641 19.8185 0.00189209 18.9283 0.00189209 18ZM11.8844 5.91275C11.7536 5.8196 11.5996 5.76425 11.4394 5.75278C11.2792 5.7413 11.1189 5.77414 10.9762 5.8477C10.8334 5.92126 10.7136 6.03269 10.6299 6.1698C10.5463 6.3069 10.502 6.46439 10.5019 6.625V15.375C10.502 15.5356 10.5463 15.6931 10.6299 15.8302C10.7136 15.9673 10.8334 16.0787 10.9762 16.1523C11.1189 16.2259 11.2792 16.2587 11.4394 16.2472C11.5996 16.2358 11.7536 16.1804 11.8844 16.0872L18.0094 11.7122C18.1228 11.6313 18.2153 11.5244 18.2791 11.4006C18.3429 11.2767 18.3761 11.1393 18.3761 11C18.3761 10.8607 18.3429 10.7233 18.2791 10.5994C18.2153 10.4756 18.1228 10.3687 18.0094 10.2878L11.8844 5.91275Z" fill="white"/>
</svg>
