<svg width="19" height="19" viewBox="0 0 19 19" fill="none" xmlns="http://www.w3.org/2000/svg">
<path d="M0.0927734 7.75957C0.0371094 8.20488 0 8.65762 0 9.11777C0 13.1627 2.21543 16.6844 5.4959 18.551L6.1082 17.2596V8.43867L5.4291 7.75957H0.0927734ZM19 8.43867C19 7.75957 18.3209 7.08047 17.6418 7.08047H12.2127C12.5504 5.72227 12.8918 4.36777 12.8918 3.68867C12.8918 2.33047 12.2127 0.975977 11.875 0.63457C11.8676 0.627148 11.5373 0.296875 10.8582 0.296875C9.84141 0.296875 9.84141 1.31367 9.84141 1.31367C9.84141 1.33223 9.50371 3.00957 9.50371 3.68867C9.50371 4.36777 8.14551 7.08047 7.46641 7.75957L6.7873 8.09727V17.5973L7.46641 17.935H14.9291C16.2873 17.935 16.9664 17.2559 16.9664 16.5768C16.9664 15.8977 16.2873 15.2186 15.6082 15.2186C16.9664 15.2186 17.6455 14.5395 17.6455 13.8604C17.6455 13.1812 16.9664 12.5021 16.2873 12.5021C17.6455 12.5021 18.3246 11.823 18.3246 11.1439C18.3246 10.4648 17.6455 9.78574 16.9664 9.78574C18.3209 9.79688 19 9.11777 19 8.43867Z" fill="white"/>
</svg>
