<svg width="17" height="16" viewBox="0 0 17 16" fill="none" xmlns="http://www.w3.org/2000/svg">
<path d="M8.5 0C10.6217 0 12.6566 0.842855 14.1569 2.34315C15.6571 3.84344 16.5 5.87827 16.5 8C16.5 10.1217 15.6571 12.1566 14.1569 13.6569C12.6566 15.1571 10.6217 16 8.5 16C6.37827 16 4.34344 15.1571 2.84315 13.6569C1.34285 12.1566 0.5 10.1217 0.5 8C0.5 5.87827 1.34285 3.84344 2.84315 2.34315C4.34344 0.842855 6.37827 0 8.5 0V0ZM5 7.5C4.86739 7.5 4.74021 7.55268 4.64645 7.64645C4.55268 7.74021 4.5 7.86739 4.5 8C4.5 8.13261 4.55268 8.25979 4.64645 8.35355C4.74021 8.44732 4.86739 8.5 5 8.5H10.793L8.646 10.646C8.59951 10.6925 8.56264 10.7477 8.53748 10.8084C8.51232 10.8692 8.49937 10.9343 8.49937 11C8.49937 11.0657 8.51232 11.1308 8.53748 11.1916C8.56264 11.2523 8.59951 11.3075 8.646 11.354C8.69249 11.4005 8.74768 11.4374 8.80842 11.4625C8.86916 11.4877 8.93426 11.5006 9 11.5006C9.06574 11.5006 9.13084 11.4877 9.19158 11.4625C9.25232 11.4374 9.30751 11.4005 9.354 11.354L12.354 8.354C12.4006 8.30755 12.4375 8.25238 12.4627 8.19163C12.4879 8.13089 12.5009 8.06577 12.5009 8C12.5009 7.93423 12.4879 7.86911 12.4627 7.80837C12.4375 7.74762 12.4006 7.69245 12.354 7.646L9.354 4.646C9.30751 4.59951 9.25232 4.56264 9.19158 4.53748C9.13084 4.51232 9.06574 4.49937 9 4.49937C8.93426 4.49937 8.86916 4.51232 8.80842 4.53748C8.74768 4.56264 8.69249 4.59951 8.646 4.646C8.59951 4.69249 8.56264 4.74768 8.53748 4.80842C8.51232 4.86916 8.49937 4.93426 8.49937 5C8.49937 5.06574 8.51232 5.13084 8.53748 5.19158C8.56264 5.25232 8.59951 5.30751 8.646 5.354L10.793 7.5H5Z" fill="white"/>
</svg>
