<svg width="18" height="18" viewBox="0 0 18 18" fill="none" xmlns="http://www.w3.org/2000/svg">
<path d="M16.9975 14.1255L13.415 12.0334C13.0428 11.8475 12.5775 11.894 12.2983 12.1729L10.5303 13.9395C10.3907 14.079 10.1581 14.1255 9.972 14.0325L9.36716 13.7071C7.22692 12.5448 5.45891 10.7782 4.29574 8.63967L3.97005 8.03529C3.877 7.84933 3.92353 7.61689 4.06311 7.47742L5.83112 5.71079C6.11028 5.43185 6.20334 4.96695 5.97071 4.59503L3.877 1.0153C3.83048 0.968805 3.83047 0.922321 3.78395 0.875831C3.50479 0.596891 3.08605 0.596891 2.80689 0.875831L1.22498 2.45649C0.852762 2.78192 0.666656 3.29332 0.666656 3.75822V4.36258C0.666656 5.89675 1.0854 7.43092 1.7833 8.77913L2.01593 9.19754C3.55131 12.0799 5.92418 14.4044 8.80884 15.9851L9.22758 16.2175C10.5769 16.9149 12.0657 17.3333 13.6011 17.3333H14.2059C14.7177 17.3333 15.183 17.1473 15.5087 16.7754L17.0906 15.1948C17.1371 15.1483 17.1836 15.1018 17.1836 15.0553C17.4628 14.7299 17.3232 14.3114 16.9975 14.1255Z" fill="#4D4D4D"/>
</svg>
