<svg width="20" height="20" viewBox="0 0 20 20" fill="none" xmlns="http://www.w3.org/2000/svg">
<path d="M3.33331 9.16663C5.32244 9.16663 7.23009 9.9568 8.63661 11.3633C10.0431 12.7698 10.8333 14.6775 10.8333 16.6666" stroke="#4D4D4D" stroke-width="2" stroke-linecap="round" stroke-linejoin="round"/>
<path fill-rule="evenodd" clip-rule="evenodd" d="M2.29169 3.33329C2.29169 2.758 2.75806 2.29163 3.33335 2.29163C7.14584 2.29163 10.8022 3.80613 13.498 6.50197C16.1938 9.1978 17.7084 12.8541 17.7084 16.6666C17.7084 17.2419 17.242 17.7083 16.6667 17.7083C16.0914 17.7083 15.625 17.2419 15.625 16.6666C15.625 13.4067 14.33 10.2802 12.0249 7.97511C9.71974 5.66997 6.59331 4.37496 3.33335 4.37496C2.75806 4.37496 2.29169 3.90859 2.29169 3.33329Z" fill="#4D4D4D"/>
<path d="M4.16667 17.5C5.08714 17.5 5.83333 16.7538 5.83333 15.8333C5.83333 14.9128 5.08714 14.1666 4.16667 14.1666C3.24619 14.1666 2.5 14.9128 2.5 15.8333C2.5 16.7538 3.24619 17.5 4.16667 17.5Z" fill="#4D4D4D"/>
</svg>
