<svg width="20" height="20" viewBox="0 0 20 20" fill="none" xmlns="http://www.w3.org/2000/svg">
<path fill-rule="evenodd" clip-rule="evenodd" d="M3.16668 9.16671C3.16668 5.853 5.85297 3.16671 9.16668 3.16671C12.4804 3.16671 15.1667 5.853 15.1667 9.16671C15.1667 9.34543 15.1589 9.52233 15.1436 9.69708C15.1156 10.0167 15.2827 10.3291 15.5795 10.4509C15.9698 10.6111 16.4124 10.3802 16.4575 9.9607C16.4856 9.69989 16.5 9.43498 16.5 9.16671C16.5 5.11662 13.2168 1.83337 9.16668 1.83337C5.11659 1.83337 1.83334 5.11662 1.83334 9.16671C1.83334 13.2168 5.11659 16.5 9.16668 16.5C10.9516 16.5 12.5877 15.8623 13.8593 14.8023L17.0285 17.9715C17.2889 18.2318 17.711 18.2318 17.9713 17.9715C18.2317 17.7111 18.2317 17.289 17.9713 17.0287L14.8021 13.8595C15.0375 13.5771 15.2521 13.2767 15.4435 12.9608C15.6435 12.6307 15.481 12.212 15.1239 12.0655C14.7981 11.9318 14.4276 12.0753 14.2392 12.3728C14.0189 12.7206 13.7637 13.0443 13.4787 13.3388C13.4525 13.3582 13.4273 13.3799 13.4035 13.4037C13.3797 13.4275 13.3581 13.4526 13.3387 13.4789C12.2589 14.5237 10.7879 15.1667 9.16668 15.1667C5.85297 15.1667 3.16668 12.4804 3.16668 9.16671Z" fill="#A4A4A4"/>
</svg>
