<svg width="25" height="25" viewBox="0 0 25 25" fill="none" xmlns="http://www.w3.org/2000/svg">
<path d="M12.5 0C5.592 0 0 5.59 0 12.5C0 19.408 5.59 25 12.5 25C19.408 25 25 19.41 25 12.5C25 5.592 19.41 0 12.5 0ZM21.355 11.81C21.501 12.317 21.198 12.848 20.68 12.997C20.161 13.145 19.623 12.855 19.478 12.348L19.113 11.077L16.663 15.38C16.4 15.844 15.805 16.014 15.336 15.76L9.776 12.761L6.65 18.251C6.386 18.715 5.575 18.127 5.105 17.874C4.636 17.621 4.47 17.04 4.733 16.576L8.337 10.247C8.601 9.784 9.195 9.613 9.664 9.867L15.224 12.866L17.196 9.402L15.896 9.775C15.377 9.923 14.839 9.633 14.694 9.126C14.548 8.62 14.851 8.088 15.369 7.94L18.936 6.917C19.463 6.766 19.996 7.069 20.138 7.565L21.355 11.81Z" fill="url(#paint0_linear_11_1502)"/>
<defs>
<linearGradient id="paint0_linear_11_1502" x1="12.5" y1="0" x2="12.5" y2="25" gradientUnits="userSpaceOnUse">
<stop stop-color="#FF3D00"/>
<stop offset="1" stop-color="#D60000"/>
</linearGradient>
</defs>
</svg>
