<svg width="18" height="21" viewBox="0 0 18 21" fill="none" xmlns="http://www.w3.org/2000/svg">
<path d="M8.03058 1.7L1.48558 8.19963C1.22845 8.45407 1.02433 8.75698 0.885022 9.09082C0.745714 9.42467 0.673985 9.78282 0.673985 10.1446C0.673985 10.5063 0.745714 10.8645 0.885022 11.1983C1.02433 11.5321 1.22845 11.8351 1.48558 12.0895L6.03683 16.6105C7.11896 17.683 8.87071 17.683 9.95146 16.6105L16.4002 10.2058C16.9133 9.69577 17.2048 9.00415 17.2115 8.28075L17.2445 3.64425C17.2457 3.2793 17.1746 2.91772 17.0352 2.58044C16.8958 2.24316 16.6909 1.93688 16.4323 1.67934C16.1738 1.42179 15.8667 1.21808 15.5288 1.08002C15.191 0.941955 14.8291 0.872271 14.4642 0.875001L9.97621 0.894251C9.24724 0.896666 8.54844 1.18557 8.03058 1.69863V1.7ZM13.6103 5.90475C13.411 6.10241 13.1417 6.21331 12.861 6.21331C12.5802 6.21331 12.3109 6.10241 12.1116 5.90475C12.0134 5.80735 11.9354 5.69147 11.8823 5.5638C11.8291 5.43613 11.8017 5.29919 11.8017 5.16088C11.8017 5.02257 11.8291 4.88563 11.8823 4.75795C11.9354 4.63028 12.0134 4.5144 12.1116 4.417C12.3109 4.21934 12.5802 4.10844 12.861 4.10844C13.1417 4.10844 13.411 4.21934 13.6103 4.417C14.0228 4.8295 14.0228 5.495 13.6103 5.90475ZM0.747208 12.9063C0.562496 13.4006 0.523913 13.9376 0.636065 14.4533C0.748217 14.9689 1.00637 15.4414 1.37971 15.8144L4.08021 18.5149C4.59093 19.0256 5.19726 19.4308 5.86457 19.7072C6.53188 19.9836 7.2471 20.1259 7.9694 20.1259C8.69169 20.1259 9.40691 19.9836 10.0742 19.7072C10.7415 19.4308 11.3479 19.0256 11.8586 18.5149L16.6463 13.7271C17.0332 13.3407 17.2509 12.8165 17.2513 12.2696V11.1971L11.8586 16.5899C11.7637 16.6848 11.6661 16.7755 11.5671 16.8608L10.8865 17.5428C10.5034 17.9259 10.0486 18.2298 9.54813 18.4371C9.04761 18.6445 8.51116 18.7512 7.9694 18.7512C7.42763 18.7512 6.89118 18.6445 6.39066 18.4371C5.89015 18.2298 5.43538 17.9259 5.05233 17.5428L4.36621 16.8566C4.2678 16.7711 4.17241 16.6821 4.08021 16.5899L1.37971 13.8894C1.10062 13.611 0.884876 13.2756 0.747208 12.9063Z" fill="#DA0000"/>
</svg>
