<svg width="12" height="13" viewBox="0 0 12 13" fill="none" xmlns="http://www.w3.org/2000/svg">
<path d="M6.00301 0.500122C2.77894 0.500122 0.168152 3.11346 0.168152 6.33346C0.168152 9.55346 2.77894 12.1668 6.00301 12.1668C9.23292 12.1668 11.8495 9.55346 11.8495 6.33346C11.8495 3.11346 9.23292 0.500122 6.00301 0.500122ZM6.00885 11.0001C3.42726 11.0001 1.33629 8.91179 1.33629 6.33346C1.33629 3.75512 3.42726 1.66679 6.00885 1.66679C8.59044 1.66679 10.6814 3.75512 10.6814 6.33346C10.6814 8.91179 8.59044 11.0001 6.00885 11.0001ZM6.30089 3.41679H5.42478V6.91679L8.49115 8.75429L8.9292 8.03679L6.30089 6.47929V3.41679Z" fill="#9D9D9D"/>
</svg>
